<?xml version="1.0" encoding="iso-8859-1"?><!-- Generator: Adobe Illustrator 19.2.1, SVG Export Plug-In . SVG Version: 6.00 Build 0)  --><svg xmlns="http://www.w3.org/2000/svg" xmlns:xlink="http://www.w3.org/1999/xlink" version="1.1" id="Layer_1" x="0px" y="0px" viewBox="0 0 80 80" style="enable-background:new 0 0 80 80;" xml:space="preserve" width="80" height="80">
<g>
	<rect x="8.5" y="12.5" style="fill:#FFFFFF;" width="69" height="65"/>
	<g>
		<path style="fill:#788B9C;" d="M77,13v64H9V13H77 M78,12H8v66h70V12L78,12z"/>
	</g>
</g>
<g>
	<rect x="8.5" y="12.5" style="fill:#F78F8F;" width="69" height="13"/>
	<g>
		<path style="fill:#C74343;" d="M77,13v12H9V13H77 M78,12H8v14h70V12L78,12z"/>
	</g>
</g>
<rect x="60" y="34" style="fill:#C5D4DE;" width="6" height="6"/>
<rect x="50" y="34" style="fill:#C5D4DE;" width="6" height="6"/>
<rect x="40" y="34" style="fill:#C5D4DE;" width="6" height="6"/>
<rect x="30" y="34" style="fill:#C5D4DE;" width="6" height="6"/>
<rect x="60" y="44" style="fill:#C5D4DE;" width="6" height="6"/>
<rect x="50" y="44" style="fill:#C5D4DE;" width="6" height="6"/>
<rect x="40" y="44" style="fill:#C5D4DE;" width="6" height="6"/>
<rect x="30" y="44" style="fill:#C5D4DE;" width="6" height="6"/>
<rect x="20" y="44" style="fill:#C5D4DE;" width="6" height="6"/>
<rect x="50" y="54" style="fill:#C5D4DE;" width="6" height="6"/>
<rect x="40" y="54" style="fill:#C5D4DE;" width="6" height="6"/>
<rect x="30" y="54" style="fill:#C5D4DE;" width="6" height="6"/>
<rect x="20" y="54" style="fill:#C5D4DE;" width="6" height="6"/>
<rect x="9" y="71" style="fill:#E1EBF2;" width="68" height="6"/>
<g>
	<path style="fill:#8BB7F0;" d="M23,43.5C11.696,43.5,2.5,34.304,2.5,23S11.696,2.5,23,2.5S43.5,11.696,43.5,23S34.304,43.5,23,43.5   z"/>
	<g>
		<path style="fill:#4E7AB5;" d="M23,3c11.028,0,20,8.972,20,20s-8.972,20-20,20S3,34.028,3,23S11.972,3,23,3 M23,2    C11.402,2,2,11.402,2,23s9.402,21,21,21s21-9.402,21-21S34.598,2,23,2L23,2z"/>
	</g>
</g>
<circle style="fill:#FFFFFF;" cx="23" cy="23" r="16"/>
<circle style="fill:#36404D;" cx="23" cy="23" r="1.5"/>
<polyline style="fill:none;stroke:#36404D;stroke-miterlimit:10;" points="29,30.5 23,23 27.5,11 "/>
</svg>